<svg id="kity_svg_6" xmlns="http://www.w3.org/2000/svg" xmlns:xlink="http://www.w3.org/1999/xlink" version="1.1" width="1013" height="1172" style="background: rgb(251, 251, 251); visibility: visible;" viewBox="0 0 1013 1172"><defs id="kity_defs_7"><linearGradient id="kity_linearGradient_17" x1="0" y1="0" x2="0" y2="1"><stop id="kity_stop_18" offset="0" stop-color="rgb(255, 255, 255)"></stop><stop id="kity_stop_19" offset="1" stop-color="rgb(204, 204, 204)"></stop></linearGradient><marker id="kity_marker_2" orient="auto" refX="6" refY="0" viewBox="-7 -7 14 14" markerWidth="7" markerHeight="7" markerUnits="userSpaceOnUse"><path id="kity_path_3" fill="rgb(115, 161, 191)" stroke="none" d="M6,0A6,6,0,1,1,-6,0A6,6,0,1,1,6,0"></path></marker></defs><g id="kity_g_8"><g id="minder1" text-rendering="optimize-speed"><g id="minder_connect_group1"><path id="kity_path_31" fill="none" stroke="rgb(115, 161, 191)" stroke-width="1" d="M166.5,570.5A162,494.5,0,0,1,328.5,76"></path><path id="kity_path_33" fill="none" stroke="rgb(115, 161, 191)" stroke-width="1" d="M565.5,76.5C573.5,76,573.5,36.5,581.5,36.5"></path><path id="kity_path_35" fill="none" stroke="rgb(115, 161, 191)" stroke-width="1" d="M565.5,76.5C573.5,76,573.5,76.5,581.5,76.5"></path><path id="kity_path_37" fill="none" stroke="rgb(115, 161, 191)" stroke-width="1" d="M565.5,76.5C573.5,76,573.5,116,581.5,116"></path><path id="kity_path_39" fill="none" stroke="rgb(115, 161, 191)" stroke-width="1" d="M166.5,570.5A162,306.5,0,0,1,328.5,264"></path><path id="kity_path_41" fill="none" stroke="rgb(115, 161, 191)" stroke-width="1" d="M670.5,264.5C678.5,264,678.5,162.5,686.5,162.5"></path><path id="kity_path_43" fill="none" stroke="rgb(115, 161, 191)" stroke-width="1" d="M759.5,162.5C767.5,162.5,767.5,163,775.5,163"></path><path id="kity_path_45" fill="none" stroke="rgb(115, 161, 191)" stroke-width="1" d="M670.5,264.5C678.5,264,678.5,260.5,686.5,260.5"></path><path id="kity_path_47" fill="none" stroke="rgb(115, 161, 191)" stroke-width="1" d="M783.5,260.5C791.5,260.5,791.5,202.5,799.5,202.5"></path><path id="kity_path_49" fill="none" stroke="rgb(115, 161, 191)" stroke-width="1" d="M783.5,260.5C791.5,260.5,791.5,242,799.5,242"></path><path id="kity_path_51" fill="none" stroke="rgb(115, 161, 191)" stroke-width="1" d="M783.5,260.5C791.5,260.5,791.5,281,799.5,281"></path><path id="kity_path_53" fill="none" stroke="rgb(115, 161, 191)" stroke-width="1" d="M783.5,260.5C793.5,260.5,793.5,329,803.5,329"></path><path id="kity_path_55" fill="none" stroke="rgb(115, 161, 191)" stroke-width="1" d="M670.5,264.5C678.5,264,678.5,359,686.5,359"></path><path id="kity_path_57" fill="none" stroke="rgb(115, 161, 191)" stroke-width="1" d="M166.5,570.5A183,17,0,0,0,349.5,587.5"></path><path id="kity_path_59" fill="none" stroke="rgb(115, 161, 191)" stroke-width="1" d="M612.5,587.5C620.5,587.5,620.5,423.5,628.5,423.5"></path><path id="kity_path_61" fill="none" stroke="rgb(115, 161, 191)" stroke-width="1" d="M713.5,423.5C721.5,423.5,721.5,403.5,729.5,403.5"></path><path id="kity_path_63" fill="none" stroke="rgb(115, 161, 191)" stroke-width="1" d="M713.5,423.5C721.5,423.5,721.5,436.5,729.5,436.5"></path><path id="kity_path_65" fill="none" stroke="rgb(115, 161, 191)" stroke-width="1" d="M869.5,436.5C877.5,436.5,877.5,436.5,885.5,436.5"></path><path id="kity_path_67" fill="none" stroke="rgb(115, 161, 191)" stroke-width="1" d="M612.5,587.5C620.5,587.5,620.5,495.5,628.5,495.5"></path><path id="kity_path_69" fill="none" stroke="rgb(115, 161, 191)" stroke-width="1" d="M690.5,495.5C698.5,495.5,698.5,476,706.5,476"></path><path id="kity_path_71" fill="none" stroke="rgb(115, 161, 191)" stroke-width="1" d="M690.5,495.5C698.5,495.5,698.5,515,706.5,515"></path><path id="kity_path_73" fill="none" stroke="rgb(115, 161, 191)" stroke-width="1" d="M612.5,587.5C620.5,587.5,620.5,587.5,628.5,587.5"></path><path id="kity_path_75" fill="none" stroke="rgb(115, 161, 191)" stroke-width="1" d="M713.5,587.5C721.5,587.5,721.5,548.5,729.5,548.5"></path><path id="kity_path_77" fill="none" stroke="rgb(115, 161, 191)" stroke-width="1" d="M713.5,587.5C721.5,587.5,721.5,581,729.5,581"></path><path id="kity_path_79" fill="none" stroke="rgb(115, 161, 191)" stroke-width="1" d="M713.5,587.5C721.5,587.5,721.5,620.5,729.5,620.5"></path><path id="kity_path_81" fill="none" stroke="rgb(115, 161, 191)" stroke-width="1" d="M612.5,587.5C620.5,587.5,620.5,679.5,628.5,679.5"></path><path id="kity_path_83" fill="none" stroke="rgb(115, 161, 191)" stroke-width="1" d="M701.5,679.5C709.5,679.5,709.5,660.5,717.5,660.5"></path><path id="kity_path_85" fill="none" stroke="rgb(115, 161, 191)" stroke-width="1" d="M701.5,679.5C709.5,679.5,709.5,700,717.5,700"></path><path id="kity_path_87" fill="none" stroke="rgb(115, 161, 191)" stroke-width="1" d="M612.5,587.5C620.5,587.5,620.5,751.5,628.5,751.5"></path><path id="kity_path_89" fill="none" stroke="rgb(115, 161, 191)" stroke-width="1" d="M690.5,751.5C698.5,751.5,698.5,738.5,706.5,738.5"></path><path id="kity_path_91" fill="none" stroke="rgb(115, 161, 191)" stroke-width="1" d="M690.5,751.5C698.5,751.5,698.5,771.5,706.5,771.5"></path><path id="kity_path_93" fill="none" stroke="rgb(115, 161, 191)" stroke-width="1" d="M166.5,570.5A162,244,0,0,0,328.5,814.5"></path><path id="kity_path_95" fill="none" stroke="rgb(115, 161, 191)" stroke-width="1" d="M486.5,814.5C494.5,814.5,494.5,801.5,502.5,801.5"></path><path id="kity_path_97" fill="none" stroke="rgb(115, 161, 191)" stroke-width="1" d="M486.5,814.5C494.5,814.5,494.5,827.5,502.5,827.5"></path><path id="kity_path_99" fill="none" stroke="rgb(115, 161, 191)" stroke-width="1" d="M166.5,570.5A162,343,0,0,0,328.5,913.5"></path><path id="kity_path_101" fill="none" stroke="rgb(115, 161, 191)" stroke-width="1" d="M486.5,913.5C494.5,913.5,494.5,861.5,502.5,861.5"></path><path id="kity_path_103" fill="none" stroke="rgb(115, 161, 191)" stroke-width="1" d="M486.5,913.5C494.5,913.5,494.5,887.5,502.5,887.5"></path><path id="kity_path_105" fill="none" stroke="rgb(115, 161, 191)" stroke-width="1" d="M486.5,913.5C494.5,913.5,494.5,913.5,502.5,913.5"></path><path id="kity_path_107" fill="none" stroke="rgb(115, 161, 191)" stroke-width="1" d="M486.5,913.5C494.5,913.5,494.5,939.5,502.5,939.5"></path><path id="kity_path_109" fill="none" stroke="rgb(115, 161, 191)" stroke-width="1" d="M486.5,913.5C494.5,913.5,494.5,965.5,502.5,965.5"></path><path id="kity_path_111" fill="none" stroke="rgb(115, 161, 191)" stroke-width="1" d="M166.5,570.5A162,501,0,0,0,328.5,1071.5"></path><path id="kity_path_113" fill="none" stroke="rgb(115, 161, 191)" stroke-width="1" d="M444.5,1071.5C452.5,1071.5,452.5,1006.5,460.5,1006.5"></path><path id="kity_path_115" fill="none" stroke="rgb(115, 161, 191)" stroke-width="1" d="M444.5,1071.5C452.5,1071.5,452.5,1052.5,460.5,1052.5"></path><path id="kity_path_117" fill="none" stroke="rgb(115, 161, 191)" stroke-width="1" d="M521.5,1052.5C529.5,1052.5,529.5,1039.5,537.5,1039.5"></path><path id="kity_path_119" fill="none" stroke="rgb(115, 161, 191)" stroke-width="1" d="M521.5,1052.5C529.5,1052.5,529.5,1065.5,537.5,1065.5"></path><path id="kity_path_121" fill="none" stroke="rgb(115, 161, 191)" stroke-width="1" d="M444.5,1071.5C452.5,1071.5,452.5,1091.5,460.5,1091.5"></path><path id="kity_path_123" fill="none" stroke="rgb(115, 161, 191)" stroke-width="1" d="M444.5,1071.5C452.5,1071.5,452.5,1117.5,460.5,1117.5"></path><path id="kity_path_125" fill="none" stroke="rgb(115, 161, 191)" stroke-width="1" d="M444.5,1071.5C452.5,1071.5,452.5,1143.5,460.5,1143.5"></path></g><g id="minder_node1"><path id="node_outline1" fill="rgb(115, 161, 191)" stroke="rgb(115, 161, 191)" d="M25.5,551.5h282a5,5,0,0,1,5,5v28a5,5,0,0,1,-5,5h-282a5,5,0,0,1,-5,-5v-28a5,5,0,0,1,5,-5z" stroke-width="3"></path><g id="node_text1" fill="white"><text id="kity_text_22" text-rendering="inherit" font-size="16" dy=".8em" y="560.0999999046326" x="32.5">技术构架图</text></g><g id="kity_g_318"><g id="kity_g_319"><path id="kity_path_320" fill="rgb(179, 255, 179)" stroke="none" d="M125.5,557h76v26h-76z"></path><text id="kity_text_321" text-rendering="geometricPrecision" font-size="12" dy="4.5" x="133.5" fill="rgb(0, 77, 0)" y="569.5">javascript</text></g><g id="kity_g_322"><path id="kity_path_323" fill="rgb(179, 255, 210)" stroke="none" d="M211.5,557h38v25h-38z"></path><text id="kity_text_324" text-rendering="geometricPrecision" font-size="12" dy="4.5" x="219.5" fill="rgb(0, 77, 31)" y="569.5">es6</text></g><g id="kity_g_325"><path id="kity_path_326" fill="rgb(242, 179, 255)" stroke="none" d="M259.5,557h41v26h-41z"></path><text id="kity_text_327" text-rendering="geometricPrecision" font-size="12" dy="4.5" x="267.5" fill="rgb(64, 0, 77)" y="569.5">http</text></g></g></g><g id="kity_g_12"><path id="kity_path_13" fill="none" stroke="none" d="M32.5,570.5h0v0h0z"></path></g><g id="kity_g_14"><path id="kity_path_15" fill="none" stroke="none" d="M32.5,570.5h0v0h0z"></path><path id="kity_path_16" fill="none" stroke="none"></path></g><g id="minder_node2"><g id="node_expander4" style="cursor: pointer;"><path id="kity_path_386" fill="white" stroke="gray" d="M329.5,76A6,6,0,1,1,317.5,76A6,6,0,1,1,329.5,76"></path><path id="kity_path_387" fill="none" stroke="gray" d="M319,76L328,76"></path></g><path id="node_outline5" fill="rgb(238, 243, 246)" stroke="rgb(115, 161, 191)" d="M333.5,57.5h229a3,3,0,0,1,3,3v31a3,3,0,0,1,-3,3h-229a3,3,0,0,1,-3,-3v-31a3,3,0,0,1,3,-3z" stroke-width="1"></path><g id="node_text5" fill="black"><text id="kity_text_133" text-rendering="inherit" font-size="14" dy=".8em" y="66.40000009536743" x="350.5">关系型数据库接口</text></g><g id="kity_g_234"><g id="kity_g_235"><path id="kity_path_236" fill="rgb(179, 229, 255)" stroke="none" d="M468.5,62h77v25h-77z"></path><text id="kity_text_237" text-rendering="geometricPrecision" font-size="12" dy="4.5" x="476.5" fill="rgb(0, 50, 77)" y="74.5">node-orm</text></g></g></g><g id="minder_node3"><g id="node_expander1" display="none" style="cursor: pointer;"><path id="kity_path_377" fill="white" stroke="gray" d="M581.5,36.5A6,6,0,1,1,569.5,36.5A6,6,0,1,1,581.5,36.5"></path><path id="kity_path_378" fill="none" stroke="gray"></path></g><path id="node_outline2" fill="none" stroke="none" d="M586.5,20.5h126a5,5,0,0,1,5,5v22a5,5,0,0,1,-5,5h-126a5,5,0,0,1,-5,-5v-22a5,5,0,0,1,5,-5z"></path><g id="node_text2" fill="black"><text id="kity_text_127" text-rendering="inherit" font-size="12" dy=".8em" y="28.700000047683716" x="586.5">MSSQL实现</text></g><g id="kity_g_222"><g id="kity_g_223"><path id="kity_path_224" fill="rgb(255, 244, 179)" stroke="none" d="M660.5,23h52v26h-52z"></path><text id="kity_text_225" text-rendering="geometricPrecision" font-size="12" dy="4.5" x="668.5" fill="rgb(77, 65, 0)" y="35.5">mssql</text></g></g></g><g id="minder_node4"><g id="node_expander2" display="none" style="cursor: pointer;"><path id="kity_path_380" fill="white" stroke="gray" d="M581.5,76.5A6,6,0,1,1,569.5,76.5A6,6,0,1,1,581.5,76.5"></path><path id="kity_path_381" fill="none" stroke="gray"></path></g><path id="node_outline3" fill="none" stroke="none" d="M586.5,60.5h126a5,5,0,0,1,5,5v22a5,5,0,0,1,-5,5h-126a5,5,0,0,1,-5,-5v-22a5,5,0,0,1,5,-5z"></path><g id="node_text3" fill="black"><text id="kity_text_129" text-rendering="inherit" font-size="12" dy=".8em" y="68.70000004768372" x="586.5">MYSQL实现</text></g><g id="kity_g_226"><g id="kity_g_227"><path id="kity_path_228" fill="rgb(255, 179, 251)" stroke="none" d="M660.5,63h52v26h-52z"></path><text id="kity_text_229" text-rendering="geometricPrecision" font-size="12" dy="4.5" x="668.5" fill="rgb(77, 0, 73)" y="75.5">mysql</text></g></g></g><g id="minder_node5"><g id="node_expander3" display="none" style="cursor: pointer;"><path id="kity_path_383" fill="white" stroke="gray" d="M581.5,116A6,6,0,1,1,569.5,116A6,6,0,1,1,581.5,116"></path><path id="kity_path_384" fill="none" stroke="gray"></path></g><path id="node_outline4" fill="none" stroke="none" d="M586.5,100.5h133a5,5,0,0,1,5,5v21a5,5,0,0,1,-5,5h-133a5,5,0,0,1,-5,-5v-21a5,5,0,0,1,5,-5z"></path><g id="node_text4" fill="black"><text id="kity_text_131" text-rendering="inherit" font-size="12" dy=".8em" y="107.70000004768372" x="586.5">ORACLE实现</text></g><g id="kity_g_230"><g id="kity_g_231"><path id="kity_path_232" fill="rgb(236, 255, 179)" stroke="none" d="M665.5,102h54v25h-54z"></path><text id="kity_text_233" text-rendering="geometricPrecision" font-size="12" dy="4.5" x="673.5" fill="rgb(57, 77, 0)" y="114.5">oracle</text></g></g></g><g id="minder_node6"><g id="node_expander13" style="cursor: pointer;"><path id="kity_path_413" fill="white" stroke="gray" d="M329.5,264A6,6,0,1,1,317.5,264A6,6,0,1,1,329.5,264"></path><path id="kity_path_414" fill="none" stroke="gray" d="M319,264L328,264"></path></g><path id="node_outline14" fill="rgb(238, 243, 246)" stroke="rgb(115, 161, 191)" d="M333.5,245.5h334a3,3,0,0,1,3,3v31a3,3,0,0,1,-3,3h-334a3,3,0,0,1,-3,-3v-31a3,3,0,0,1,3,-3z" stroke-width="1"></path><g id="node_text14" fill="black"><text id="kity_text_151" text-rendering="inherit" font-size="14" dy=".8em" y="254.40000009536743" x="350.5">UI渲染引擎</text></g><g id="kity_g_262"><g id="kity_g_263"><path id="kity_path_264" fill="rgb(255, 181, 179)" stroke="none" d="M427.5,250h39v25h-39z"></path><text id="kity_text_265" text-rendering="geometricPrecision" font-size="12" dy="4.5" x="435.5" fill="rgb(77, 3, 0)" y="262.5">vue</text></g><g id="kity_g_266"><path id="kity_path_267" fill="rgb(255, 179, 198)" stroke="none" d="M471.5,250h76v26h-76z"></path><text id="kity_text_268" text-rendering="geometricPrecision" font-size="12" dy="4.5" x="479.5" fill="rgb(77, 0, 19)" y="262.5">bootstrap</text></g><g id="kity_g_269"><path id="kity_path_270" fill="rgb(255, 184, 179)" stroke="none" d="M552.5,250h50v25h-50z"></path><text id="kity_text_271" text-rendering="geometricPrecision" font-size="12" dy="4.5" x="560.5" fill="rgb(77, 5, 0)" y="262.5">html5</text></g><g id="kity_g_272"><path id="kity_path_273" fill="rgb(255, 215, 179)" stroke="none" d="M607.5,250h43v25h-43z"></path><text id="kity_text_274" text-rendering="geometricPrecision" font-size="12" dy="4.5" x="615.5" fill="rgb(77, 36, 0)" y="262.5">css3</text></g></g></g><g id="minder_node7"><g id="node_expander6" style="cursor: pointer;"><path id="kity_path_392" fill="white" stroke="gray" d="M686.5,162.5A6,6,0,1,1,674.5,162.5A6,6,0,1,1,686.5,162.5"></path><path id="kity_path_393" fill="none" stroke="gray" d="M676,162.5L685,162.5"></path></g><path id="node_outline7" fill="none" stroke="none" d="M691.5,153.5h63a5,5,0,0,1,5,5v8a5,5,0,0,1,-5,5h-63a5,5,0,0,1,-5,-5v-8a5,5,0,0,1,5,-5z"></path><g id="node_text7" fill="black"><text id="kity_text_137" text-rendering="inherit" font-size="12" dy=".8em" y="154.70000004768372" x="691.5">UI组件接口</text></g></g><g id="minder_node8"><g id="node_expander5" display="none" style="cursor: pointer;"><path id="kity_path_389" fill="white" stroke="gray" d="M775.5,163A6,6,0,1,1,763.5,163A6,6,0,1,1,775.5,163"></path><path id="kity_path_390" fill="none" stroke="gray"></path></g><path id="node_outline6" fill="none" stroke="none" d="M780.5,147.5h147a5,5,0,0,1,5,5v21a5,5,0,0,1,-5,5h-147a5,5,0,0,1,-5,-5v-21a5,5,0,0,1,5,-5z"></path><g id="node_text6" fill="black"><text id="kity_text_135" text-rendering="inherit" font-size="12" dy=".8em" y="154.70000004768372" x="780.5">常用组件库</text></g><g id="kity_g_238"><g id="kity_g_239"><path id="kity_path_240" fill="rgb(179, 255, 226)" stroke="none" d="M848.5,149h79v25h-79z"></path><text id="kity_text_241" text-rendering="geometricPrecision" font-size="12" dy="4.5" x="856.5" fill="rgb(0, 77, 47)" y="161.5">element-ui</text></g></g></g><g id="minder_node9"><g id="node_expander11" style="cursor: pointer;"><path id="kity_path_407" fill="white" stroke="gray" d="M686.5,260.5A6,6,0,1,1,674.5,260.5A6,6,0,1,1,686.5,260.5"></path><path id="kity_path_408" fill="none" stroke="gray" d="M676,260.5L685,260.5"></path></g><path id="node_outline12" fill="none" stroke="none" d="M691.5,251.5h87a5,5,0,0,1,5,5v8a5,5,0,0,1,-5,5h-87a5,5,0,0,1,-5,-5v-8a5,5,0,0,1,5,-5z"></path><g id="node_text12" fill="black"><text id="kity_text_147" text-rendering="inherit" font-size="12" dy=".8em" y="252.70000004768372" x="691.5">UI渲染引擎接口</text></g></g><g id="minder_node10"><g id="node_expander7" display="none" style="cursor: pointer;"><path id="kity_path_395" fill="white" stroke="gray" d="M799.5,202.5A6,6,0,1,1,787.5,202.5A6,6,0,1,1,799.5,202.5"></path><path id="kity_path_396" fill="none" stroke="gray"></path></g><path id="node_outline8" fill="none" stroke="none" d="M804.5,186.5h184a5,5,0,0,1,5,5v22a5,5,0,0,1,-5,5h-184a5,5,0,0,1,-5,-5v-22a5,5,0,0,1,5,-5z"></path><g id="node_text8" fill="black"><text id="kity_text_139" text-rendering="inherit" font-size="12" dy=".8em" y="194.70000004768372" x="804.5">移动端UI渲染引擎</text></g><g id="kity_g_242"><g id="kity_g_243"><path id="kity_path_244" fill="rgb(255, 179, 179)" stroke="none" d="M910.5,189h78v26h-78z"></path><text id="kity_text_245" text-rendering="geometricPrecision" font-size="12" dy="4.5" x="918.5" fill="rgb(77, 0, 0)" y="201.5">phonegap</text></g></g></g><g id="minder_node11"><g id="node_expander8" display="none" style="cursor: pointer;"><path id="kity_path_398" fill="white" stroke="gray" d="M799.5,242A6,6,0,1,1,787.5,242A6,6,0,1,1,799.5,242"></path><path id="kity_path_399" fill="none" stroke="gray"></path></g><path id="node_outline9" fill="none" stroke="none" d="M804.5,226.5h161a5,5,0,0,1,5,5v21a5,5,0,0,1,-5,5h-161a5,5,0,0,1,-5,-5v-21a5,5,0,0,1,5,-5z"></path><g id="node_text9" fill="black"><text id="kity_text_141" text-rendering="inherit" font-size="12" dy=".8em" y="233.70000004768372" x="804.5">PC端UI渲染引擎</text></g><g id="kity_g_246"><g id="kity_g_247"><path id="kity_path_248" fill="rgb(255, 212, 179)" stroke="none" d="M900.5,228h65v25h-65z"></path><text id="kity_text_249" text-rendering="geometricPrecision" font-size="12" dy="4.5" x="908.5" fill="rgb(77, 33, 0)" y="240.5">electron</text></g></g></g><g id="minder_node12"><g id="node_expander9" display="none" style="cursor: pointer;"><path id="kity_path_401" fill="white" stroke="gray" d="M799.5,281A6,6,0,1,1,787.5,281A6,6,0,1,1,799.5,281"></path><path id="kity_path_402" fill="none" stroke="gray"></path></g><path id="node_outline10" fill="none" stroke="none" d="M804.5,265.5h179a5,5,0,0,1,5,5v21a5,5,0,0,1,-5,5h-179a5,5,0,0,1,-5,-5v-21a5,5,0,0,1,5,-5z"></path><g id="node_text10" fill="black"><text id="kity_text_143" text-rendering="inherit" font-size="12" dy=".8em" y="272.7000000476837" x="804.5">移动端Native渲染引擎</text></g><g id="kity_g_250"><g id="kity_g_251"><path id="kity_path_252" fill="rgb(196, 179, 255)" stroke="none" d="M934.5,267h49v25h-49z"></path><text id="kity_text_253" text-rendering="geometricPrecision" font-size="12" dy="4.5" x="942.5" fill="rgb(17, 0, 77)" y="279.5">weex</text></g></g></g><g id="minder_node13"><g id="node_expander10" display="none" style="cursor: pointer;"><path id="kity_path_404" fill="white" stroke="gray" d="M803.5,329A6,6,0,1,1,791.5,329A6,6,0,1,1,803.5,329"></path><path id="kity_path_405" fill="none" stroke="gray"></path></g><path id="node_outline11" fill="none" stroke="none" d="M808.5,313.5h163a5,5,0,0,1,5,5v21a5,5,0,0,1,-5,5h-163a5,5,0,0,1,-5,-5v-21a5,5,0,0,1,5,-5z"></path><g id="node_text11" fill="black"><text id="kity_text_145" text-rendering="inherit" font-size="12" dy=".8em" y="320.7000000476837" x="808.5">WEB端渲染引擎</text></g><g id="kity_g_254"><g id="kity_g_255"><path id="kity_path_256" fill="rgb(244, 179, 255)" stroke="none" d="M904.5,315h67v25h-67z"></path><text id="kity_text_257" text-rendering="geometricPrecision" font-size="12" dy="4.5" x="912.5" fill="rgb(65, 0, 77)" y="327.5">browser</text></g></g></g><g id="minder_node14"><g id="node_expander12" display="none" style="cursor: pointer;"><path id="kity_path_410" fill="white" stroke="gray" d="M686.5,359A6,6,0,1,1,674.5,359A6,6,0,1,1,686.5,359"></path><path id="kity_path_411" fill="none" stroke="gray"></path></g><path id="node_outline13" fill="none" stroke="none" d="M691.5,343.5h136a5,5,0,0,1,5,5v21a5,5,0,0,1,-5,5h-136a5,5,0,0,1,-5,-5v-21a5,5,0,0,1,5,-5z"></path><g id="node_text13" fill="black"><text id="kity_text_149" text-rendering="inherit" font-size="12" dy=".8em" y="350.7000000476837" x="691.5">多语言支持</text></g><g id="kity_g_258"><g id="kity_g_259"><path id="kity_path_260" fill="rgb(186, 255, 179)" stroke="none" d="M759.5,345h68v25h-68z"></path><text id="kity_text_261" text-rendering="geometricPrecision" font-size="12" dy="4.5" x="767.5" fill="rgb(8, 77, 0)" y="357.5">vue-i18n</text></g></g></g><g id="minder_node15"><g id="node_expander31" style="cursor: pointer;"><path id="kity_path_467" fill="white" stroke="gray" d="M350.5,587.5A6,6,0,1,1,338.5,587.5A6,6,0,1,1,350.5,587.5"></path><path id="kity_path_468" fill="none" stroke="gray" d="M340,587.5L349,587.5"></path></g><path id="node_outline32" fill="rgb(238, 243, 246)" stroke="rgb(115, 161, 191)" d="M354.5,568.5h255a3,3,0,0,1,3,3v32a3,3,0,0,1,-3,3h-255a3,3,0,0,1,-3,-3v-32a3,3,0,0,1,3,-3z" stroke-width="1"></path><g id="node_text32" fill="black"><text id="kity_text_187" text-rendering="inherit" font-size="14" dy=".8em" y="578.4000000953674" x="371.5">服务提供程序</text></g><g id="kity_g_307"><g id="kity_g_308"><path id="kity_path_309" fill="rgb(255, 179, 219)" stroke="none" d="M464.5,574h63v26h-63z"></path><text id="kity_text_310" text-rendering="geometricPrecision" font-size="12" dy="4.5" x="472.5" fill="rgb(77, 0, 41)" y="586.5">express</text></g><g id="kity_g_311"><path id="kity_path_312" fill="rgb(255, 235, 179)" stroke="none" d="M532.5,574h60v26h-60z"></path><text id="kity_text_313" text-rendering="geometricPrecision" font-size="12" dy="4.5" x="540.5" fill="rgb(77, 56, 0)" y="586.5">node.js</text></g></g></g><g id="minder_node16"><g id="node_expander17" style="cursor: pointer;"><path id="kity_path_425" fill="white" stroke="gray" d="M628.5,423.5A6,6,0,1,1,616.5,423.5A6,6,0,1,1,628.5,423.5"></path><path id="kity_path_426" fill="none" stroke="gray" d="M618,423.5L627,423.5"></path></g><path id="node_outline18" fill="none" stroke="none" d="M633.5,414.5h75a5,5,0,0,1,5,5v8a5,5,0,0,1,-5,5h-75a5,5,0,0,1,-5,-5v-8a5,5,0,0,1,5,-5z"></path><g id="node_text18" fill="black"><text id="kity_text_159" text-rendering="inherit" font-size="12" dy=".8em" y="415.7000000476837" x="633.5">路由配置接口</text></g></g><g id="minder_node17"><g id="node_expander14" display="none" style="cursor: pointer;"><path id="kity_path_416" fill="white" stroke="gray" d="M729.5,403.5A6,6,0,1,1,717.5,403.5A6,6,0,1,1,729.5,403.5"></path><path id="kity_path_417" fill="none" stroke="gray"></path></g><path id="node_outline15" fill="none" stroke="none" d="M734.5,394.5h51a5,5,0,0,1,5,5v8a5,5,0,0,1,-5,5h-51a5,5,0,0,1,-5,-5v-8a5,5,0,0,1,5,-5z"></path><g id="node_text15" fill="black"><text id="kity_text_153" text-rendering="inherit" font-size="12" dy=".8em" y="395.7000000476837" x="734.5">默认路由</text></g></g><g id="minder_node18"><g id="node_expander16" style="cursor: pointer;"><path id="kity_path_422" fill="white" stroke="gray" d="M729.5,436.5A6,6,0,1,1,717.5,436.5A6,6,0,1,1,729.5,436.5"></path><path id="kity_path_423" fill="none" stroke="gray" d="M719,436.5L728,436.5"></path></g><path id="node_outline17" fill="none" stroke="none" d="M734.5,420.5h130a5,5,0,0,1,5,5v22a5,5,0,0,1,-5,5h-130a5,5,0,0,1,-5,-5v-22a5,5,0,0,1,5,-5z"></path><g id="node_text17" fill="black"><text id="kity_text_157" text-rendering="inherit" font-size="12" dy=".8em" y="428.7000000476837" x="734.5">反向代理路由</text></g><g id="kity_g_275"><g id="kity_g_276"><path id="kity_path_277" fill="rgb(179, 250, 255)" stroke="none" d="M814.5,423h50v26h-50z"></path><text id="kity_text_278" text-rendering="geometricPrecision" font-size="12" dy="4.5" x="822.5" fill="rgb(0, 71, 77)" y="435.5">nginx</text></g></g></g><g id="minder_node19"><g id="node_expander15" display="none" style="cursor: pointer;"><path id="kity_path_419" fill="white" stroke="gray" d="M885.5,436.5A6,6,0,1,1,873.5,436.5A6,6,0,1,1,885.5,436.5"></path><path id="kity_path_420" fill="none" stroke="gray"></path></g><path id="node_outline16" fill="none" stroke="none" d="M890.5,427.5h52a5,5,0,0,1,5,5v8a5,5,0,0,1,-5,5h-52a5,5,0,0,1,-5,-5v-8a5,5,0,0,1,5,-5z"></path><g id="node_text16" fill="black"><text id="kity_text_155" text-rendering="inherit" font-size="12" dy=".8em" y="428.7000000476837" x="890.5">负载平衡 </text></g></g><g id="minder_node20"><g id="node_expander20" style="cursor: pointer;"><path id="kity_path_434" fill="white" stroke="gray" d="M628.5,495.5A6,6,0,1,1,616.5,495.5A6,6,0,1,1,628.5,495.5"></path><path id="kity_path_435" fill="none" stroke="gray" d="M618,495.5L627,495.5"></path></g><path id="node_outline21" fill="none" stroke="none" d="M633.5,486.5h52a5,5,0,0,1,5,5v8a5,5,0,0,1,-5,5h-52a5,5,0,0,1,-5,-5v-8a5,5,0,0,1,5,-5z"></path><g id="node_text21" fill="black"><text id="kity_text_165" text-rendering="inherit" font-size="12" dy=".8em" y="487.7000000476837" x="633.5">服务协议</text></g></g><g id="minder_node21"><g id="node_expander18" display="none" style="cursor: pointer;"><path id="kity_path_428" fill="white" stroke="gray" d="M706.5,476A6,6,0,1,1,694.5,476A6,6,0,1,1,706.5,476"></path><path id="kity_path_429" fill="none" stroke="gray"></path></g><path id="node_outline19" fill="none" stroke="none" d="M711.5,460.5h126a5,5,0,0,1,5,5v21a5,5,0,0,1,-5,5h-126a5,5,0,0,1,-5,-5v-21a5,5,0,0,1,5,-5z"></path><g id="node_text19" fill="black"><text id="kity_text_161" text-rendering="inherit" font-size="12" dy=".8em" y="467.7000000476837" x="711.5">RESTful API</text></g><g id="kity_g_279"><g id="kity_g_280"><path id="kity_path_281" fill="rgb(233, 179, 255)" stroke="none" d="M783.5,462h54v25h-54z"></path><text id="kity_text_282" text-rendering="geometricPrecision" font-size="12" dy="4.5" x="791.5" fill="rgb(55, 0, 77)" y="474.5">restful</text></g></g></g><g id="minder_node22"><g id="node_expander19" display="none" style="cursor: pointer;"><path id="kity_path_431" fill="white" stroke="gray" d="M706.5,515A6,6,0,1,1,694.5,515A6,6,0,1,1,706.5,515"></path><path id="kity_path_432" fill="none" stroke="gray"></path></g><path id="node_outline20" fill="none" stroke="none" d="M711.5,499.5h159a5,5,0,0,1,5,5v21a5,5,0,0,1,-5,5h-159a5,5,0,0,1,-5,-5v-21a5,5,0,0,1,5,-5z"></path><g id="node_text20" fill="#a6a6a6"><text id="kity_text_163" text-rendering="inherit" font-size="12" dy=".8em" y="506.7000000476837" x="711.5">WebService</text></g><g id="kity_g_283"><g id="kity_g_284"><path id="kity_path_285" fill="rgb(215, 255, 179)" stroke="none" d="M787.5,501h83v25h-83z"></path><text id="kity_text_286" text-rendering="geometricPrecision" font-size="12" dy="4.5" x="795.5" fill="rgb(36, 77, 0)" y="513.5">webservice</text></g></g></g><g id="minder_node23"><g id="node_expander24" style="cursor: pointer;"><path id="kity_path_446" fill="white" stroke="gray" d="M628.5,587.5A6,6,0,1,1,616.5,587.5A6,6,0,1,1,628.5,587.5"></path><path id="kity_path_447" fill="none" stroke="gray" d="M618,587.5L627,587.5"></path></g><path id="node_outline25" fill="none" stroke="none" d="M633.5,578.5h75a5,5,0,0,1,5,5v8a5,5,0,0,1,-5,5h-75a5,5,0,0,1,-5,-5v-8a5,5,0,0,1,5,-5z"></path><g id="node_text25" fill="black"><text id="kity_text_173" text-rendering="inherit" font-size="12" dy=".8em" y="579.7000000476837" x="633.5">传输协议接口</text></g></g><g id="minder_node24"><g id="node_expander21" display="none" style="cursor: pointer;"><path id="kity_path_437" fill="white" stroke="gray" d="M729.5,548.5A6,6,0,1,1,717.5,548.5A6,6,0,1,1,729.5,548.5"></path><path id="kity_path_438" fill="none" stroke="gray"></path></g><path id="node_outline22" fill="none" stroke="none" d="M734.5,539.5h27a5,5,0,0,1,5,5v8a5,5,0,0,1,-5,5h-27a5,5,0,0,1,-5,-5v-8a5,5,0,0,1,5,-5z"></path><g id="node_text22" fill="black"><text id="kity_text_167" text-rendering="inherit" font-size="12" dy=".8em" y="540.7000000476837" x="734.5">Http</text></g></g><g id="minder_node25"><g id="node_expander22" display="none" style="cursor: pointer;"><path id="kity_path_440" fill="white" stroke="gray" d="M729.5,581A6,6,0,1,1,717.5,581A6,6,0,1,1,729.5,581"></path><path id="kity_path_441" fill="none" stroke="gray"></path></g><path id="node_outline23" fill="none" stroke="none" d="M734.5,565.5h157a5,5,0,0,1,5,5v21a5,5,0,0,1,-5,5h-157a5,5,0,0,1,-5,-5v-21a5,5,0,0,1,5,-5z"></path><g id="node_text23" fill="#a6a6a6"><text id="kity_text_169" text-rendering="inherit" font-size="12" dy=".8em" y="572.7000000476837" x="734.5">WebSocket</text></g><g id="kity_g_287"><g id="kity_g_288"><path id="kity_path_289" fill="rgb(244, 179, 255)" stroke="none" d="M809.5,567h82v25h-82z"></path><text id="kity_text_290" text-rendering="geometricPrecision" font-size="12" dy="4.5" x="817.5" fill="rgb(65, 0, 77)" y="579.5">websocket</text></g></g></g><g id="minder_node26"><g id="node_expander23" display="none" style="cursor: pointer;"><path id="kity_path_443" fill="white" stroke="gray" d="M729.5,620.5A6,6,0,1,1,717.5,620.5A6,6,0,1,1,729.5,620.5"></path><path id="kity_path_444" fill="none" stroke="gray"></path></g><path id="node_outline24" fill="none" stroke="none" d="M734.5,604.5h100a5,5,0,0,1,5,5v22a5,5,0,0,1,-5,5h-100a5,5,0,0,1,-5,-5v-22a5,5,0,0,1,5,-5z"></path><g id="node_text24" fill="#a6a6a6"><text id="kity_text_171" text-rendering="inherit" font-size="12" dy=".8em" y="612.7000000476837" x="734.5">Socket</text></g><g id="kity_g_291"><g id="kity_g_292"><path id="kity_path_293" fill="rgb(231, 255, 179)" stroke="none" d="M781.5,607h53v26h-53z"></path><text id="kity_text_294" text-rendering="geometricPrecision" font-size="12" dy="4.5" x="789.5" fill="rgb(52, 77, 0)" y="619.5">tcp/ip</text></g></g></g><g id="minder_node27"><g id="node_expander27" style="cursor: pointer;"><path id="kity_path_455" fill="white" stroke="gray" d="M628.5,679.5A6,6,0,1,1,616.5,679.5A6,6,0,1,1,628.5,679.5"></path><path id="kity_path_456" fill="none" stroke="gray" d="M618,679.5L627,679.5"></path></g><path id="node_outline28" fill="none" stroke="none" d="M633.5,670.5h63a5,5,0,0,1,5,5v8a5,5,0,0,1,-5,5h-63a5,5,0,0,1,-5,-5v-8a5,5,0,0,1,5,-5z"></path><g id="node_text28" fill="black"><text id="kity_text_179" text-rendering="inherit" font-size="12" dy=".8em" y="671.7000000476837" x="633.5">序列化接口</text></g></g><g id="minder_node28"><g id="node_expander25" display="none" style="cursor: pointer;"><path id="kity_path_449" fill="white" stroke="gray" d="M717.5,660.5A6,6,0,1,1,705.5,660.5A6,6,0,1,1,717.5,660.5"></path><path id="kity_path_450" fill="none" stroke="gray"></path></g><path id="node_outline26" fill="none" stroke="none" d="M722.5,644.5h114a5,5,0,0,1,5,5v22a5,5,0,0,1,-5,5h-114a5,5,0,0,1,-5,-5v-22a5,5,0,0,1,5,-5z"></path><g id="node_text26" fill="black"><text id="kity_text_175" text-rendering="inherit" font-size="12" dy=".8em" y="652.7000000476837" x="722.5">Json序列化</text></g><g id="kity_g_295"><g id="kity_g_296"><path id="kity_path_297" fill="rgb(201, 179, 255)" stroke="none" d="M792.5,647h44v26h-44z"></path><text id="kity_text_298" text-rendering="geometricPrecision" font-size="12" dy="4.5" x="800.5" fill="rgb(22, 0, 77)" y="659.5">json</text></g></g></g><g id="minder_node29"><g id="node_expander26" display="none" style="cursor: pointer;"><path id="kity_path_452" fill="white" stroke="gray" d="M717.5,700A6,6,0,1,1,705.5,700A6,6,0,1,1,717.5,700"></path><path id="kity_path_453" fill="none" stroke="gray"></path></g><path id="node_outline27" fill="none" stroke="none" d="M722.5,684.5h106a5,5,0,0,1,5,5v21a5,5,0,0,1,-5,5h-106a5,5,0,0,1,-5,-5v-21a5,5,0,0,1,5,-5z"></path><g id="node_text27" fill="#7f7f7f"><text id="kity_text_177" text-rendering="inherit" font-size="12" dy=".8em" y="691.7000000476837" x="722.5">Xml序列化</text></g><g id="kity_g_299"><g id="kity_g_300"><path id="kity_path_301" fill="rgb(255, 179, 249)" stroke="none" d="M789.5,686h39v25h-39z"></path><text id="kity_text_302" text-rendering="geometricPrecision" font-size="12" dy="4.5" x="797.5" fill="rgb(77, 0, 70)" y="698.5">xml</text></g></g></g><g id="minder_node30"><g id="node_expander30" style="cursor: pointer;"><path id="kity_path_464" fill="white" stroke="gray" d="M628.5,751.5A6,6,0,1,1,616.5,751.5A6,6,0,1,1,628.5,751.5"></path><path id="kity_path_465" fill="none" stroke="gray" d="M618,751.5L627,751.5"></path></g><path id="node_outline31" fill="none" stroke="none" d="M633.5,742.5h52a5,5,0,0,1,5,5v8a5,5,0,0,1,-5,5h-52a5,5,0,0,1,-5,-5v-8a5,5,0,0,1,5,-5z"></path><g id="node_text31" fill="black"><text id="kity_text_185" text-rendering="inherit" font-size="12" dy=".8em" y="743.7000000476837" x="633.5">数据加密</text></g></g><g id="minder_node31"><g id="node_expander28" display="none" style="cursor: pointer;"><path id="kity_path_458" fill="white" stroke="gray" d="M706.5,738.5A6,6,0,1,1,694.5,738.5A6,6,0,1,1,706.5,738.5"></path><path id="kity_path_459" fill="none" stroke="gray"></path></g><path id="node_outline29" fill="none" stroke="none" d="M711.5,722.5h87a5,5,0,0,1,5,5v22a5,5,0,0,1,-5,5h-87a5,5,0,0,1,-5,-5v-22a5,5,0,0,1,5,-5z"></path><g id="node_text29" fill="black"><text id="kity_text_181" text-rendering="inherit" font-size="12" dy=".8em" y="730.7000000476837" x="711.5">ZIP压缩</text></g><g id="kity_g_303"><g id="kity_g_304"><path id="kity_path_305" fill="rgb(255, 208, 179)" stroke="none" d="M762.5,725h36v26h-36z"></path><text id="kity_text_306" text-rendering="geometricPrecision" font-size="12" dy="4.5" x="770.5" fill="rgb(77, 29, 0)" y="737.5">zip</text></g></g></g><g id="minder_node32"><g id="node_expander29" display="none" style="cursor: pointer;"><path id="kity_path_461" fill="white" stroke="gray" d="M706.5,771.5A6,6,0,1,1,694.5,771.5A6,6,0,1,1,706.5,771.5"></path><path id="kity_path_462" fill="none" stroke="gray"></path></g><path id="node_outline30" fill="none" stroke="none" d="M711.5,762.5h52a5,5,0,0,1,5,5v8a5,5,0,0,1,-5,5h-52a5,5,0,0,1,-5,-5v-8a5,5,0,0,1,5,-5z"></path><g id="node_text30" fill="black"><text id="kity_text_183" text-rendering="inherit" font-size="12" dy=".8em" y="763.7000000476837" x="711.5">数据加密</text></g></g><g id="minder_node33"><g id="node_expander34" style="cursor: pointer;"><path id="kity_path_476" fill="white" stroke="gray" d="M329.5,814.5A6,6,0,1,1,317.5,814.5A6,6,0,1,1,329.5,814.5"></path><path id="kity_path_477" fill="none" stroke="gray" d="M319,814.5L328,814.5"></path></g><path id="node_outline35" fill="rgb(238, 243, 246)" stroke="rgb(115, 161, 191)" d="M333.5,801.5h150a3,3,0,0,1,3,3v20a3,3,0,0,1,-3,3h-150a3,3,0,0,1,-3,-3v-20a3,3,0,0,1,3,-3z" stroke-width="1"></path><g id="node_text35" fill="black"><text id="kity_text_193" text-rendering="inherit" font-size="14" dy=".8em" y="805.4000000953674" x="350.5">数据缓存提供程序</text></g></g><g id="minder_node34"><g id="node_expander32" display="none" style="cursor: pointer;"><path id="kity_path_470" fill="white" stroke="gray" d="M502.5,801.5A6,6,0,1,1,490.5,801.5A6,6,0,1,1,502.5,801.5"></path><path id="kity_path_471" fill="none" stroke="gray"></path></g><path id="node_outline33" fill="none" stroke="none" d="M507.5,792.5h100a5,5,0,0,1,5,5v8a5,5,0,0,1,-5,5h-100a5,5,0,0,1,-5,-5v-8a5,5,0,0,1,5,-5z"></path><g id="node_text33" fill="black"><text id="kity_text_189" text-rendering="inherit" font-size="12" dy=".8em" y="793.7000000476837" x="507.5">默认缓存提供程序</text></g></g><g id="minder_node35"><g id="node_expander33" display="none" style="cursor: pointer;"><path id="kity_path_473" fill="white" stroke="gray" d="M502.5,827.5A6,6,0,1,1,490.5,827.5A6,6,0,1,1,502.5,827.5"></path><path id="kity_path_474" fill="none" stroke="gray"></path></g><path id="node_outline34" fill="none" stroke="none" d="M507.5,818.5h91a5,5,0,0,1,5,5v8a5,5,0,0,1,-5,5h-91a5,5,0,0,1,-5,-5v-8a5,5,0,0,1,5,-5z"></path><g id="node_text34" fill="#a6a6a6"><text id="kity_text_191" text-rendering="inherit" font-size="12" dy=".8em" y="819.7000000476837" x="507.5">TODO:补充需求</text></g></g><g id="minder_node36"><g id="node_expander40" style="cursor: pointer;"><path id="kity_path_494" fill="white" stroke="gray" d="M329.5,913.5A6,6,0,1,1,317.5,913.5A6,6,0,1,1,329.5,913.5"></path><path id="kity_path_495" fill="none" stroke="gray" d="M319,913.5L328,913.5"></path></g><path id="node_outline41" fill="rgb(238, 243, 246)" stroke="rgb(115, 161, 191)" d="M333.5,900.5h150a3,3,0,0,1,3,3v20a3,3,0,0,1,-3,3h-150a3,3,0,0,1,-3,-3v-20a3,3,0,0,1,3,-3z" stroke-width="1"></path><g id="node_text41" fill="black"><text id="kity_text_205" text-rendering="inherit" font-size="14" dy=".8em" y="904.4000000953674" x="350.5">数据同步提供程序</text></g></g><g id="minder_node37"><g id="node_expander35" display="none" style="cursor: pointer;"><path id="kity_path_479" fill="white" stroke="gray" d="M502.5,861.5A6,6,0,1,1,490.5,861.5A6,6,0,1,1,502.5,861.5"></path><path id="kity_path_480" fill="none" stroke="gray"></path></g><path id="node_outline36" fill="none" stroke="none" d="M507.5,852.5h99a5,5,0,0,1,5,5v8a5,5,0,0,1,-5,5h-99a5,5,0,0,1,-5,-5v-8a5,5,0,0,1,5,-5z"></path><g id="node_text36" fill="black"><text id="kity_text_195" text-rendering="inherit" font-size="12" dy=".8em" y="853.7000000476837" x="507.5">数据监视程序接口</text></g></g><g id="minder_node38"><g id="node_expander36" display="none" style="cursor: pointer;"><path id="kity_path_482" fill="white" stroke="gray" d="M502.5,887.5A6,6,0,1,1,490.5,887.5A6,6,0,1,1,502.5,887.5"></path><path id="kity_path_483" fill="none" stroke="gray"></path></g><path id="node_outline37" fill="none" stroke="none" d="M507.5,878.5h99a5,5,0,0,1,5,5v8a5,5,0,0,1,-5,5h-99a5,5,0,0,1,-5,-5v-8a5,5,0,0,1,5,-5z"></path><g id="node_text37" fill="black"><text id="kity_text_197" text-rendering="inherit" font-size="12" dy=".8em" y="879.7000000476837" x="507.5">数据提取程序接口</text></g></g><g id="minder_node39"><g id="node_expander37" display="none" style="cursor: pointer;"><path id="kity_path_485" fill="white" stroke="gray" d="M502.5,913.5A6,6,0,1,1,490.5,913.5A6,6,0,1,1,502.5,913.5"></path><path id="kity_path_486" fill="none" stroke="gray"></path></g><path id="node_outline38" fill="none" stroke="none" d="M507.5,904.5h99a5,5,0,0,1,5,5v8a5,5,0,0,1,-5,5h-99a5,5,0,0,1,-5,-5v-8a5,5,0,0,1,5,-5z"></path><g id="node_text38" fill="black"><text id="kity_text_199" text-rendering="inherit" font-size="12" dy=".8em" y="905.7000000476837" x="507.5">数据转换程序接口</text></g></g><g id="minder_node40"><g id="node_expander38" display="none" style="cursor: pointer;"><path id="kity_path_488" fill="white" stroke="gray" d="M502.5,939.5A6,6,0,1,1,490.5,939.5A6,6,0,1,1,502.5,939.5"></path><path id="kity_path_489" fill="none" stroke="gray"></path></g><path id="node_outline39" fill="none" stroke="none" d="M507.5,930.5h99a5,5,0,0,1,5,5v8a5,5,0,0,1,-5,5h-99a5,5,0,0,1,-5,-5v-8a5,5,0,0,1,5,-5z"></path><g id="node_text39" fill="black"><text id="kity_text_201" text-rendering="inherit" font-size="12" dy=".8em" y="931.7000000476837" x="507.5">数据传输程序接口</text></g></g><g id="minder_node41"><g id="node_expander39" display="none" style="cursor: pointer;"><path id="kity_path_491" fill="white" stroke="gray" d="M502.5,965.5A6,6,0,1,1,490.5,965.5A6,6,0,1,1,502.5,965.5"></path><path id="kity_path_492" fill="none" stroke="gray"></path></g><path id="node_outline40" fill="none" stroke="none" d="M507.5,956.5h99a5,5,0,0,1,5,5v8a5,5,0,0,1,-5,5h-99a5,5,0,0,1,-5,-5v-8a5,5,0,0,1,5,-5z"></path><g id="node_text40" fill="black"><text id="kity_text_203" text-rendering="inherit" font-size="12" dy=".8em" y="957.7000000476837" x="507.5">数据写入程序接口</text></g></g><g id="minder_node42"><g id="node_expander48" style="cursor: pointer;"><path id="kity_path_518" fill="white" stroke="gray" d="M329.5,1071.5A6,6,0,1,1,317.5,1071.5A6,6,0,1,1,329.5,1071.5"></path><path id="kity_path_519" fill="none" stroke="gray" d="M319,1071.5L328,1071.5"></path></g><path id="node_outline49" fill="rgb(238, 243, 246)" stroke="rgb(115, 161, 191)" d="M333.5,1058.5h108a3,3,0,0,1,3,3v20a3,3,0,0,1,-3,3h-108a3,3,0,0,1,-3,-3v-20a3,3,0,0,1,3,-3z" stroke-width="1"></path><g id="node_text49" fill="black"><text id="kity_text_221" text-rendering="inherit" font-size="14" dy=".8em" y="1062.4000000953674" x="350.5">工具类型库</text></g></g><g id="minder_node43"><g id="node_expander41" display="none" style="cursor: pointer;"><path id="kity_path_497" fill="white" stroke="gray" d="M460.5,1006.5A6,6,0,1,1,448.5,1006.5A6,6,0,1,1,460.5,1006.5"></path><path id="kity_path_498" fill="none" stroke="gray"></path></g><path id="node_outline42" fill="none" stroke="none" d="M465.5,990.5h142a5,5,0,0,1,5,5v22a5,5,0,0,1,-5,5h-142a5,5,0,0,1,-5,-5v-22a5,5,0,0,1,5,-5z"></path><g id="node_text42" fill="black"><text id="kity_text_207" text-rendering="inherit" font-size="12" dy=".8em" y="998.7000000476837" x="465.5">日志提供程序</text></g><g id="kity_g_314"><g id="kity_g_315"><path id="kity_path_316" fill="rgb(179, 255, 185)" stroke="none" d="M544.5,993h63v26h-63z"></path><text id="kity_text_317" text-rendering="geometricPrecision" font-size="12" dy="4.5" x="552.5" fill="rgb(0, 77, 6)" y="1005.5">log4net</text></g></g></g><g id="minder_node44"><g id="node_expander44" style="cursor: pointer;"><path id="kity_path_506" fill="white" stroke="gray" d="M460.5,1052.5A6,6,0,1,1,448.5,1052.5A6,6,0,1,1,460.5,1052.5"></path><path id="kity_path_507" fill="none" stroke="gray" d="M450,1052.5L459,1052.5"></path></g><path id="node_outline45" fill="none" stroke="none" d="M465.5,1043.5h51a5,5,0,0,1,5,5v8a5,5,0,0,1,-5,5h-51a5,5,0,0,1,-5,-5v-8a5,5,0,0,1,5,-5z"></path><g id="node_text45" fill="black"><text id="kity_text_213" text-rendering="inherit" font-size="12" dy=".8em" y="1044.7000000476837" x="465.5">消息接口</text></g></g><g id="minder_node45"><g id="node_expander42" display="none" style="cursor: pointer;"><path id="kity_path_500" fill="white" stroke="gray" d="M537.5,1039.5A6,6,0,1,1,525.5,1039.5A6,6,0,1,1,537.5,1039.5"></path><path id="kity_path_501" fill="none" stroke="gray"></path></g><path id="node_outline43" fill="none" stroke="none" d="M542.5,1030.5h51a5,5,0,0,1,5,5v8a5,5,0,0,1,-5,5h-51a5,5,0,0,1,-5,-5v-8a5,5,0,0,1,5,-5z"></path><g id="node_text43" fill="black"><text id="kity_text_209" text-rendering="inherit" font-size="12" dy=".8em" y="1031.7000000476837" x="542.5">短信接口</text></g></g><g id="minder_node46"><g id="node_expander43" display="none" style="cursor: pointer;"><path id="kity_path_503" fill="white" stroke="gray" d="M537.5,1065.5A6,6,0,1,1,525.5,1065.5A6,6,0,1,1,537.5,1065.5"></path><path id="kity_path_504" fill="none" stroke="gray"></path></g><path id="node_outline44" fill="none" stroke="none" d="M542.5,1056.5h75a5,5,0,0,1,5,5v8a5,5,0,0,1,-5,5h-75a5,5,0,0,1,-5,-5v-8a5,5,0,0,1,5,-5z"></path><g id="node_text44" fill="black"><text id="kity_text_211" text-rendering="inherit" font-size="12" dy=".8em" y="1057.7000000476837" x="542.5">微信消息接口</text></g></g><g id="minder_node47"><g id="node_expander45" display="none" style="cursor: pointer;"><path id="kity_path_509" fill="white" stroke="gray" d="M460.5,1091.5A6,6,0,1,1,448.5,1091.5A6,6,0,1,1,460.5,1091.5"></path><path id="kity_path_510" fill="none" stroke="gray"></path></g><path id="node_outline46" fill="none" stroke="none" d="M465.5,1082.5h76a5,5,0,0,1,5,5v8a5,5,0,0,1,-5,5h-76a5,5,0,0,1,-5,-5v-8a5,5,0,0,1,5,-5z"></path><g id="node_text46" fill="black"><text id="kity_text_215" text-rendering="inherit" font-size="12" dy=".8em" y="1083.7000000476837" x="465.5">单元测试工具</text></g></g><g id="minder_node48"><g id="node_expander46" display="none" style="cursor: pointer;"><path id="kity_path_512" fill="white" stroke="gray" d="M460.5,1117.5A6,6,0,1,1,448.5,1117.5A6,6,0,1,1,460.5,1117.5"></path><path id="kity_path_513" fill="none" stroke="gray"></path></g><path id="node_outline47" fill="none" stroke="none" d="M465.5,1108.5h76a5,5,0,0,1,5,5v8a5,5,0,0,1,-5,5h-76a5,5,0,0,1,-5,-5v-8a5,5,0,0,1,5,-5z"></path><g id="node_text47" fill="black"><text id="kity_text_217" text-rendering="inherit" font-size="12" dy=".8em" y="1109.7000000476837" x="465.5">前端测试工具</text></g></g><g id="minder_node49"><g id="node_expander47" display="none" style="cursor: pointer;"><path id="kity_path_515" fill="white" stroke="gray" d="M460.5,1143.5A6,6,0,1,1,448.5,1143.5A6,6,0,1,1,460.5,1143.5"></path><path id="kity_path_516" fill="none" stroke="gray"></path></g><path id="node_outline48" fill="none" stroke="none" d="M465.5,1134.5h76a5,5,0,0,1,5,5v8a5,5,0,0,1,-5,5h-76a5,5,0,0,1,-5,-5v-8a5,5,0,0,1,5,-5z"></path><g id="node_text48" fill="black"><text id="kity_text_219" text-rendering="inherit" font-size="12" dy=".8em" y="1135.7000000476837" x="465.5">服务测试工具</text></g></g></g></g></svg>